Coordinates
version=1
nRows=12
nColumns=24
inDegrees=yes

Units are S.I. units (second, meters, Newtons, ...)
Angles are in degrees.

endheader
time	pelvis_tilt	pelvis_list	pelvis_rotation	pelvis_tx	pelvis_ty	pelvis_tz	hip_flexion_r	hip_adduction_r	hip_rotation_r	knee_angle_r	ankle_angle_r	subtalar_angle_r	mtp_angle_r	hip_flexion_l	hip_adduction_l	hip_rotation_l	knee_angle_l	ankle_angle_l	subtalar_angle_l	mtp_angle_l	lumbar_extension	lumbar_bending	lumbar_rotation
      3.34500000	     25.26987832	      0.68661884	      0.84798684	      0.54927085	      1.02439476	      0.02405235	    -32.22337908	     -4.47946811	    -10.60498015	    -32.66421172	      2.60326665	     -5.79062212	     46.33584844	     -7.21330714	      0.50088181	     -3.25338718	    -19.10859928	      4.20690507	     -5.39613140	      4.07369075	    -38.03071370	     -2.74950065	      0.94633446
      3.35000000	     25.23872987	      0.86480284	      0.71350088	      0.55457518	      1.02497561	      0.02317470	    -31.45683378	     -4.99193227	    -10.68555735	    -34.17070993	      1.68850615	     -6.05235126	     46.36549222	     -7.58868086	      0.77390137	     -3.36379983	    -19.00002004	      4.45377359	     -5.42097700	      4.06399190	    -37.96290190	     -2.98258731	      0.89252735
      3.35500000	     25.13659328	      0.94660995	      0.57895906	      0.55975405	      1.02546331	      0.02237404	    -30.57150466	     -5.38941535	    -10.64613438	    -35.66155650	      0.80493422	     -6.56665477	     46.62272815	     -7.86603282	      0.93490395	     -3.49545402	    -18.92600562	      4.83651076	     -5.36947502	      4.02190387	    -37.82544261	     -3.13016097	      0.93092426
      3.36000000	     25.06413802	      1.05121654	      0.48626661	      0.56496931	      1.02601064	      0.02159853	    -29.75153419	     -5.77764229	    -10.66799306	    -37.04440959	     -0.11298529	     -7.19990567	     48.20017703	     -8.19329172	      1.09329486	     -3.65196783	    -18.82187879	      5.26539633	     -5.03197689	      3.63745128	    -37.71688173	     -3.27869998	      0.88312830
      3.36500000	     25.01183607	      1.16939532	      0.33087164	      0.57009030	      1.02658784	      0.02082996	    -28.91994051	     -6.21907017	    -10.64339102	    -38.43413364	     -0.77279562	     -7.64919399	     48.24070619	     -8.58037899	      1.30658461	     -3.76892272	    -18.62661276	      5.48276185	     -5.08802878	      3.60474935	    -37.63441081	     -3.46383424	      0.90835173
      3.37000000	     24.92686674	      1.27058683	      0.19978517	      0.57519771	      1.02715044	      0.02010913	    -28.06090402	     -6.61086866	    -10.59881223	    -39.75430635	     -1.31155382	     -8.18434387	     48.26563239	     -8.93258820	      1.48504000	     -3.89011964	    -18.42618663	      5.72586898	     -4.96298904	      3.59445402	    -37.51680264	     -3.62226222	      0.90117450
      3.37500000	     24.85058556	      1.33077109	      0.06311496	      0.58023728	      1.02772301	      0.01945909	    -27.20485884	     -6.94921003	    -10.51693994	    -41.01258365	     -1.75949531	     -8.75102313	     48.28839081	     -9.28798606	      1.61551118	     -4.04137698	    -18.23465316	      5.99271404	     -4.84620978	      3.57876673	    -37.41179766	     -3.74838779	      0.92802527
      3.38000000	     24.81169147	      1.41228993	     -0.04721425	      0.58524612	      1.02834143	      0.01876521	    -26.40945206	     -7.29676002	    -10.48843430	    -42.19246437	     -2.08537738	     -9.25220697	     48.27299540	     -9.68348909	      1.76789086	     -4.17214338	    -18.03611067	      6.21892945	     -4.73465404	      3.57570194	    -37.35033189	     -3.87219101	      0.89711437
      3.38500000	     24.72370709	      1.40885129	     -0.18358799	      0.59021527	      1.02894740	      0.01818467	    -25.54625525	     -7.53717116	    -10.33862232	    -43.30313872	     -2.29835952	     -9.85511749	     48.23978914	    -10.04484760	      1.83510282	     -4.28779472	    -17.79900570	      6.45736634	     -4.62314187	      3.55431097	    -37.23415015	     -3.93631547	      0.97710018
      3.39000000	     24.69077442	      1.44561379	     -0.28401429	      0.59512630	      1.02958618	      0.01755066	    -24.76396056	     -7.80908270	    -10.28210937	    -44.34326100	     -2.40534184	    -10.35966594	     48.18772316	    -10.44564617	      1.93991345	     -4.39068346	    -17.59182814	      6.68008099	     -4.52940493	      3.54579714	    -37.18567654	     -4.01143477	      0.96679864
      3.39500000	     24.59250517	      1.40231547	     -0.39935847	      0.60001608	      1.03019734	      0.01698101	    -23.90094674	     -7.98031335	    -10.13586700	    -45.31206528	     -2.44436141	    -10.89670957	     48.08171760	    -10.78943805	      1.96537886	     -4.47919609	    -17.35621835	      6.90313893	     -4.44221820	      3.50952958	    -37.06405286	     -4.02066082	      1.06078282
      3.40000000	     24.53327624	      1.36295729	     -0.47509102	      0.60484411	      1.03083216	      0.01642265	    -23.10297311	     -8.12816775	    -10.04572514	    -46.19929684	     -2.35299431	    -11.37058680	     47.75861670	    -11.15373100	      1.97984778	     -4.55896061	    -17.15782871	      7.16584898	     -4.29068993	      3.36387681	    -36.99354542	     -4.01348257	      1.08857551
